<svg xmlns="http://www.w3.org/2000/svg"  viewBox="0 0 50 50" width="50px" height="50px"><path d="M 28.199219 0 C 30.999219 6.4 18.299219 10.299609 17.199219 15.599609 C 16.099219 20.499609 24.599609 26.099609 24.599609 26.099609 C 23.299609 24.099609 22.399609 22.400781 21.099609 19.300781 C 18.899609 14.000781 34.499219 9.2 28.199219 0 z M 36.599609 8.8007812 C 36.599609 8.8007812 25.500391 9.4996094 24.900391 16.599609 C 24.600391 19.699609 27.800391 21.399219 27.900391 23.699219 C 28.000391 25.599219 26 27.099609 26 27.099609 C 26 27.099609 29.599219 26.399609 30.699219 23.599609 C 31.899219 20.399609 28.299219 18.299219 28.699219 15.699219 C 29.099219 13.299219 36.599609 8.8007812 36.599609 8.8007812 z M 19.199219 25.099609 C 19.199219 25.099609 9.0996094 25.000391 9.0996094 27.900391 C 9.0996094 30.900391 22.300781 31.099219 31.800781 29.199219 C 31.800781 29.199219 34.3 27.500781 35 26.800781 C 28.8 28.100781 14.599609 28.199609 14.599609 27.099609 C 14.599609 26.099609 19.199219 25.099609 19.199219 25.099609 z M 39.208984 25.154297 C 38.051758 25.100391 36.762109 25.475781 35.599609 26.300781 C 37.899609 25.800781 39.800781 27.200781 39.800781 28.800781 C 39.800781 32.400781 34.599609 35.800781 34.599609 35.800781 C 34.599609 35.800781 42.699219 34.900391 42.699219 28.900391 C 42.699219 26.525391 41.137695 25.244141 39.208984 25.154297 z M 16.699219 30.800781 C 15.099219 30.800781 12.800781 31.999219 12.800781 33.199219 C 12.800781 35.499219 24.499609 37.300391 33.099609 33.900391 L 30.199219 32 C 24.299219 33.9 13.499219 33.300781 16.699219 30.800781 z M 18.199219 35.900391 C 16.099219 35.900391 14.699219 37.199219 14.699219 38.199219 C 14.699219 41.199219 27.400391 41.5 32.400391 38.5 L 29.199219 36.5 C 25.499219 38 15.999219 38.200391 18.199219 35.900391 z M 11.050781 38.552734 C 7.5958984 38.466602 5.3007812 40.075781 5.3007812 41.300781 C 5.4007813 48.300781 40.900391 48.000391 40.900391 40.900391 C 40.900391 39.700391 39.5 39.200391 39 38.900391 C 41.9 45.600391 9.9003906 45.099609 9.9003906 41.099609 C 9.9003906 40.199609 12.200391 39.299219 14.400391 39.699219 L 12.599609 38.699219 C 12.062109 38.611719 11.544336 38.565039 11.050781 38.552734 z M 44.599609 43.199219 C 39.199609 48.299219 25.499219 50.2 11.699219 47 C 25.499219 52.7 44.599609 49.499219 44.599609 43.199219 z"/></svg>